<svg width="396" height="240" viewBox="0 0 396 240" fill="none" xmlns="http://www.w3.org/2000/svg">
<path d="M360.62 174.745V146.329C360.62 143.807 358.742 141.679 356.239 141.367L324.775 137.445C321.678 137.059 318.987 139.574 319.165 142.691L320.637 168.56C320.763 170.78 322.341 172.65 324.508 173.149L352.905 179.683C353.34 179.783 353.785 179.824 354.231 179.806L355.825 179.74C358.505 179.631 360.62 177.426 360.62 174.745Z" fill="#E8EBF2"/>
<path fill-rule="evenodd" clip-rule="evenodd" d="M344.924 139.958C345.553 140.697 352.575 146.691 356.168 149.731L360.622 148.883V146.33C360.622 143.808 358.743 141.681 356.24 141.369L344.924 139.958Z" fill="#D2DBEE"/>
<path d="M356.301 174.315V145.727C356.301 143.21 354.431 141.086 351.934 140.767L321.309 136.857C318.32 136.476 315.675 138.804 315.675 141.817V166.985C315.675 169.298 317.262 171.309 319.512 171.847L350.137 179.178C353.28 179.93 356.301 177.548 356.301 174.315Z" fill="#EFF2FA"/>
<path fill-rule="evenodd" clip-rule="evenodd" d="M356.301 149.804L315.675 143.171V141.817C315.675 138.804 318.32 136.475 321.309 136.857L351.934 140.767C354.431 141.085 356.301 143.21 356.301 145.726V149.804Z" fill="#DEE5F5"/>
<path d="M321.143 148.282L324.327 149.151V166.808L321.143 166.229V148.282Z" fill="#DEE5F5"/>
<path d="M327.511 148.282L330.985 148.861V168.255L327.511 167.387V148.282Z" fill="#DEE5F5"/>
<path d="M333.88 151.756L337.064 152.624V169.703L333.88 168.834V151.756Z" fill="#DEE5F5"/>
<path d="M339.669 156.966L343.142 157.645V171.15L339.669 170.282V156.966Z" fill="#DEE5F5"/>
<path d="M346.616 163.334L350.09 164.32V172.887L346.616 172.018V163.334Z" fill="#DEE5F5"/>
<path fill-rule="evenodd" clip-rule="evenodd" d="M324.324 153.068L321.14 152.319V166.23L324.324 166.809V153.068ZM330.982 150.773L327.508 150.078V167.388L330.982 168.256V150.773ZM337.06 162.116V169.704L333.876 168.835V161.433L337.06 162.116ZM343.139 159.175L339.666 158.523V170.283L343.139 171.151V159.175ZM350.086 165.158V172.888L346.613 172.02V164.34L350.086 165.158Z" fill="#3D58FF"/>
<path d="M371.673 204.486V198.369C371.673 196.101 370.145 194.116 367.952 193.536L353.433 189.692C352.491 189.443 351.497 189.474 350.572 189.782L349.303 190.206C348.354 190.522 347.785 191.49 347.969 192.472L349.666 201.503C349.998 203.271 351.254 204.724 352.955 205.308L364.787 209.377C366.213 209.867 367.784 209.687 369.063 208.888L369.323 208.726C370.785 207.812 371.673 206.21 371.673 204.486Z" fill="#E8EBF2"/>
<path fill-rule="evenodd" clip-rule="evenodd" d="M370.241 194.866L367.621 195.39L369.069 201.179L371.674 200.468V198.37C371.674 197.024 371.136 195.778 370.241 194.866Z" fill="#C6D2EB"/>
<path fill-rule="evenodd" clip-rule="evenodd" d="M370.621 195.302C369.965 194.459 369.041 193.825 367.952 193.537L353.433 189.693C352.491 189.444 351.497 189.475 350.572 189.783L349.302 190.207C348.92 190.334 348.599 190.568 348.364 190.866L368.489 195.968L370.621 195.302Z" fill="#D1DAEF"/>
<path d="M369.106 204.195V199.321C369.106 197.035 367.556 195.04 365.34 194.476L352.435 191.188C349.273 190.383 346.2 192.771 346.2 196.033V199.325C346.2 201.405 347.489 203.268 349.435 204.003L362.341 208.873C365.611 210.107 369.106 207.69 369.106 204.195Z" fill="#EFF2FA"/>
<path fill-rule="evenodd" clip-rule="evenodd" d="M369.108 201.213L346.5 194.32C347.345 191.992 349.861 190.529 352.436 191.185L365.342 194.472C367.557 195.036 369.108 197.031 369.108 199.317V201.213Z" fill="#DEE5F5"/>
<path d="M395.197 130.846V77.9761C395.197 74.9791 392.579 72.6553 389.603 73.0116L365.028 75.9538C362.514 76.2547 360.622 78.3868 360.622 80.9183V128.284C360.622 130.845 362.557 132.992 365.104 133.257L389.679 135.819C392.629 136.127 395.197 133.813 395.197 130.846Z" fill="#E8EBF2"/>
<path fill-rule="evenodd" clip-rule="evenodd" d="M395.192 81.281L390.898 81.9967L383.938 73.6894L389.598 73.0118C392.574 72.6556 395.192 74.9793 395.192 77.9764V81.281Z" fill="#D2DBEE"/>
<path d="M390.875 130.812V78.4536C390.875 75.4584 388.259 73.1353 385.285 73.4885L360.71 76.4067C358.194 76.7055 356.3 78.8385 356.3 81.3719V128.271C356.3 130.834 358.237 132.981 360.786 133.245L385.36 135.786C388.31 136.091 390.875 133.777 390.875 130.812Z" fill="#EFF2FA"/>
<path fill-rule="evenodd" clip-rule="evenodd" d="M390.873 81.9052L356.298 84.0166V81.3721C356.298 78.8387 358.193 76.7057 360.708 76.407L385.283 73.4887C388.258 73.1355 390.873 75.4587 390.873 78.4538V81.9052Z" fill="#DEE5F5"/>
<path d="M363.568 99.0527C365.305 97.9913 369.705 96.2158 371.094 102.237C372.831 109.763 375.436 110.631 377.173 109.184C378.91 107.737 380.647 100.5 386.725 100.5" stroke="#F65D6D" stroke-width="1.5" stroke-linecap="round" stroke-linejoin="round"/>
<path d="M362.989 90.6577C365.015 89.4033 368.257 91.8156 369.647 94.1313C371.384 97.0259 372.541 99.0522 374.568 99.0522C378.91 99.0522 380.936 99.9205 380.646 102.815C380.357 105.71 379.489 108.894 381.515 108.894C383.541 108.894 382.383 106.868 385.278 106.578H386.725" stroke="#EC9216" stroke-width="1.5" stroke-linecap="round" stroke-linejoin="round"/>
<path d="M363.277 105.709C364.917 107.349 366.016 107.022 367.04 105.999C368.198 104.841 367.619 102.236 369.935 101.078C372.25 99.9199 373.085 100.539 374.277 102.525C375.145 103.972 378.619 105.709 379.487 102.814C380.355 99.9197 378.619 90.078 386.724 91.2358" stroke="#48C5A1" stroke-width="1.5" stroke-linecap="round" stroke-linejoin="round"/>
<path d="M362.412 87.9973V112.602L385.569 113.47" stroke="#D2DBEE" stroke-width="2" stroke-linecap="round" stroke-linejoin="round"/>
<path d="M358.938 109.998H360.385M358.938 105.077H360.385M358.938 100.445H360.385M358.938 95.5243H360.385M358.938 90.314H360.385" stroke="#B4C0DB" stroke-linecap="round"/>
<path d="M364.148 115.078L366.753 115.207M369.937 115.407L372.553 115.471M375.726 115.471L378.331 115.638M381.515 115.638L384.431 115.786" stroke="#B4C0DB" stroke-linecap="round"/>
<g filter="url(#filter0_d_1780_1979)">
<path d="M359.517 120.809C359.517 119.655 360.49 118.741 361.642 118.813L385.43 120.3C386.484 120.366 387.306 121.24 387.306 122.296V128.085C387.306 129.255 386.305 130.175 385.139 130.078L361.351 128.096C360.314 128.009 359.517 127.143 359.517 126.103V120.809Z" fill="#3D58FF"/>
</g>
<ellipse cx="364.148" cy="123.602" rx="2.31572" ry="2.60518" fill="white"/>
<path d="M369.649 122.444L384.122 123.313M369.649 125.339L378.622 125.918" stroke="white" stroke-width="2" stroke-linecap="round"/>
<path d="M349.024 125.907V82.7656C349.024 79.7689 346.406 77.4452 343.43 77.8009L311.508 81.6165C308.994 81.917 307.102 84.0493 307.102 86.5812V121.76C307.102 124.272 308.966 126.394 311.457 126.718L343.38 130.866C346.372 131.254 349.024 128.924 349.024 125.907Z" fill="#E8EBF2"/>
<path fill-rule="evenodd" clip-rule="evenodd" d="M349.02 86.132L343.08 86.6271L331.79 79.6801C332.652 79.4451 333.751 79.1424 334.9 78.8211L343.427 77.8019C346.402 77.4462 349.02 79.7699 349.02 82.7665V86.132Z" fill="#D2DBEE"/>
<path d="M344.701 125.913V83.2034C344.701 80.2086 342.086 77.8856 339.113 78.2381L307.19 82.0227C304.674 82.321 302.779 84.4542 302.779 86.9879V121.8C302.779 124.314 304.646 126.437 307.14 126.759L339.062 130.872C342.053 131.258 344.701 128.928 344.701 125.913Z" fill="#EFF2FA"/>
<path fill-rule="evenodd" clip-rule="evenodd" d="M344.699 86.4962L302.841 89.2321L302.777 88.915V86.9908C302.777 84.4571 304.673 82.3239 307.189 82.0256L339.111 78.241C342.085 77.8884 344.699 80.2115 344.699 83.2062V86.4962Z" fill="#DEE5F5"/>
<g filter="url(#filter1_d_1780_1979)">
<path d="M325.653 92.2247C325.691 91.9142 325.479 91.6262 325.168 91.5937C323.256 91.3937 321.331 91.8337 319.619 92.8694C317.741 94.0051 316.213 95.8004 315.25 98.0037C314.286 100.207 313.935 102.708 314.245 105.157C314.555 107.606 315.512 109.88 316.98 111.66C318.448 113.441 320.355 114.639 322.433 115.087C324.512 115.535 326.658 115.21 328.571 114.158C330.484 113.107 332.068 111.38 333.102 109.221C334.064 107.214 334.505 104.926 334.376 102.636C334.36 102.353 334.103 102.148 333.822 102.184V102.184C333.553 102.219 333.362 102.46 333.376 102.73C333.489 104.787 333.092 106.843 332.228 108.647C331.296 110.592 329.869 112.147 328.145 113.095C326.421 114.043 324.487 114.335 322.615 113.931C320.742 113.528 319.024 112.448 317.701 110.844C316.378 109.24 315.517 107.191 315.237 104.984C314.958 102.778 315.274 100.525 316.142 98.5393C317.01 96.554 318.387 94.9365 320.079 93.9132C321.589 92.9995 323.284 92.6003 324.971 92.7532C325.303 92.7833 325.612 92.5557 325.653 92.2247V92.2247Z" fill="#3D58FF"/>
<path d="M325.653 92.2247C325.691 91.9142 325.479 91.6262 325.168 91.5937C323.256 91.3937 321.331 91.8337 319.619 92.8694C317.741 94.0051 316.213 95.8004 315.25 98.0037C314.286 100.207 313.935 102.708 314.245 105.157C314.555 107.606 315.512 109.88 316.98 111.66C318.448 113.441 320.355 114.639 322.433 115.087C324.512 115.535 326.658 115.21 328.571 114.158C330.484 113.107 332.068 111.38 333.102 109.221C334.064 107.214 334.505 104.926 334.376 102.636C334.36 102.353 334.103 102.148 333.822 102.184V102.184C333.553 102.219 333.362 102.46 333.376 102.73C333.489 104.787 333.092 106.843 332.228 108.647C331.296 110.592 329.869 112.147 328.145 113.095C326.421 114.043 324.487 114.335 322.615 113.931C320.742 113.528 319.024 112.448 317.701 110.844C316.378 109.24 315.517 107.191 315.237 104.984C314.958 102.778 315.274 100.525 316.142 98.5393C317.01 96.554 318.387 94.9365 320.079 93.9132C321.589 92.9995 323.284 92.6003 324.971 92.7532C325.303 92.7833 325.612 92.5557 325.653 92.2247V92.2247Z" fill="url(#paint0_linear_1780_1979)"/>
</g>
<ellipse cx="324.334" cy="103.29" rx="6.96602" ry="8.64748" fill="#DEE5F5"/>
<ellipse cx="324.449" cy="101.731" rx="2.05555" ry="2.55171" fill="#3D58FF"/>
<path d="M319.248 109.198C319.973 107.001 322.028 105.417 324.45 105.417C326.793 105.417 328.793 106.9 329.577 108.987C328.3 110.796 326.425 111.938 324.336 111.938C322.328 111.938 320.519 110.884 319.248 109.198Z" fill="#3D58FF"/>
<path d="M317.609 119.914L331.214 121.072M320.214 123.387L328.609 124.256" stroke="#CDDCFF" stroke-width="2" stroke-linecap="round"/>
<path d="M373.362 59.6184L373.253 6.42082C373.248 3.81794 371.247 1.6545 368.652 1.44693L367.128 1.32501C366.39 1.26598 365.648 1.37155 364.956 1.63412L321.925 17.9567C319.983 18.6934 318.699 20.5543 318.699 22.6316V67.2818C318.699 70.3807 321.489 72.7334 324.543 72.21L369.206 64.5568C371.61 64.1448 373.367 62.0578 373.362 59.6184Z" fill="#E8EBF2"/>
<path fill-rule="evenodd" clip-rule="evenodd" d="M373.255 8.18268H368.9L366.005 5.5775L364.792 1.69492L364.954 1.63326C365.646 1.37069 366.388 1.26511 367.126 1.32415L368.65 1.44607C371.245 1.65364 373.246 3.81707 373.252 6.41996L373.255 8.18268Z" fill="#D2DBEE"/>
<path d="M369.048 60.1739V7.16505C369.048 3.68784 365.586 1.27237 362.323 2.47207L317.651 18.8928C315.684 19.6161 314.376 21.4897 314.376 23.5858V67.7663C314.376 70.8625 317.161 73.2144 320.214 72.6956L364.885 65.1032C367.289 64.6947 369.048 62.612 369.048 60.1739Z" fill="#EFF2FA"/>
<path fill-rule="evenodd" clip-rule="evenodd" d="M369.046 8.2466L314.374 26.6463V23.5858C314.374 21.4897 315.682 19.6161 317.649 18.8928L362.321 2.47207C365.585 1.27237 369.046 3.68784 369.046 7.16505V8.2466Z" fill="#DEE5F5"/>
<g filter="url(#filter2_d_1780_1979)">
<path d="M318.244 32.6557C318.244 30.4897 319.638 28.57 321.698 27.9005L358.012 16.0983C361.243 15.0484 364.558 17.4565 364.558 20.8535V32.6217C364.558 34.927 362.982 36.9335 360.742 37.4794L324.428 46.331C321.279 47.0985 318.244 44.714 318.244 41.4733V32.6557Z" fill="white"/>
</g>
<ellipse cx="326.059" cy="35.6363" rx="5.49982" ry="7.19208" fill="#DEE5F5"/>
<ellipse cx="326.148" cy="34.3395" rx="1.6229" ry="2.12225" fill="#3D58FF"/>
<path d="M322.044 40.5473C322.616 38.7204 324.239 37.4031 326.151 37.4031C328.001 37.4031 329.58 38.6366 330.199 40.3718C329.191 41.8765 327.71 42.8266 326.061 42.8266C324.476 42.8266 323.047 41.95 322.044 40.5473Z" fill="#3D58FF"/>
<ellipse cx="328.57" cy="57.2918" rx="5.11618" ry="6.69038" fill="#DEE5F5"/>
<ellipse cx="328.653" cy="56.0853" rx="1.50969" ry="1.97421" fill="#3D58FF"/>
<path d="M324.835 61.8623C325.367 60.1628 326.876 58.9374 328.655 58.9374C330.376 58.9374 331.845 60.0848 332.421 61.699C331.483 63.0987 330.106 63.9826 328.571 63.9826C327.097 63.9826 325.768 63.1671 324.835 61.8623Z" fill="#3D58FF"/>
<path d="M338.835 27.5477C338.799 27.4648 338.725 27.4133 338.648 27.4165L337.598 27.4602L337.018 26.3812C336.975 26.302 336.898 26.2582 336.822 26.2697C336.745 26.2812 336.685 26.3456 336.667 26.4339L336.431 27.6359L335.414 27.9034C335.339 27.9231 335.284 27.994 335.274 28.0839C335.263 28.1739 335.299 28.2654 335.365 28.3167L336.27 29.0161L336.221 30.2608C336.218 30.3523 336.261 30.44 336.331 30.484C336.368 30.5078 336.41 30.5163 336.449 30.5104C336.483 30.5054 336.515 30.4896 336.542 30.4636L337.337 29.6939L338.324 30.1953C338.396 30.232 338.478 30.2154 338.532 30.1527C338.585 30.09 338.601 29.9937 338.57 29.9073L338.158 28.7319L338.816 27.7973C338.864 27.7288 338.872 27.6308 338.835 27.5477V27.5477Z" fill="#FEAF45"/>
<path d="M344.03 25.9363C343.993 25.8534 343.92 25.8018 343.843 25.8051L342.793 25.8487L342.212 24.7698C342.17 24.6905 342.093 24.6468 342.016 24.6583C341.94 24.6698 341.88 24.7342 341.862 24.8225L341.625 26.0244L340.609 26.2919C340.534 26.3117 340.479 26.3825 340.468 26.4724C340.458 26.5624 340.494 26.654 340.56 26.7053L341.464 27.4047L341.416 28.6494C341.413 28.7409 341.456 28.8285 341.525 28.8726C341.563 28.8964 341.604 28.9049 341.644 28.899C341.677 28.8939 341.709 28.8782 341.736 28.8521L342.532 28.0824L343.519 28.5838C343.591 28.6206 343.673 28.6039 343.726 28.5413C343.78 28.4786 343.795 28.3822 343.765 28.2958L343.353 27.1205L344.011 26.1859C344.059 26.1173 344.067 26.0194 344.03 25.9363V25.9363Z" fill="#FEAF45"/>
<path d="M349.226 24.2792C349.19 24.1963 349.116 24.1447 349.039 24.148L347.989 24.1916L347.409 23.1127C347.366 23.0334 347.289 22.9897 347.213 23.0012C347.137 23.0127 347.076 23.0771 347.059 23.1654L346.822 24.3673L345.805 24.6348C345.731 24.6546 345.676 24.7254 345.665 24.8153C345.654 24.9053 345.69 24.9969 345.757 25.0482L346.661 25.7476L346.613 26.9923C346.609 27.0838 346.652 27.1714 346.722 27.2155C346.76 27.2393 346.801 27.2478 346.84 27.2419C346.874 27.2368 346.906 27.221 346.933 27.195L347.728 26.4253L348.715 26.9267C348.787 26.9635 348.869 26.9468 348.923 26.8842C348.977 26.8215 348.992 26.7251 348.961 26.6387L348.549 25.4634L349.207 24.5288C349.256 24.4602 349.263 24.3623 349.226 24.2792V24.2792Z" fill="#FEAF45"/>
<path d="M354.418 22.7952C354.381 22.7123 354.308 22.6607 354.231 22.664L353.18 22.7076L352.6 21.6286C352.557 21.5494 352.481 21.5056 352.404 21.5171C352.328 21.5286 352.267 21.5931 352.25 21.6814L352.013 22.8833L350.996 23.1508C350.922 23.1706 350.867 23.2414 350.856 23.3313C350.846 23.4213 350.882 23.5129 350.948 23.5642L351.852 24.2636L351.804 25.5083C351.801 25.5998 351.843 25.6874 351.913 25.7314C351.951 25.7553 351.992 25.7638 352.031 25.7579C352.065 25.7528 352.097 25.737 352.124 25.711L352.92 24.9413L353.907 25.4427C353.979 25.4795 354.06 25.4628 354.114 25.4002C354.168 25.3375 354.183 25.2411 354.153 25.1547L353.74 23.9794L354.399 23.0448C354.447 22.9762 354.455 22.8783 354.418 22.7952V22.7952Z" fill="#FEAF45"/>
<path d="M359.572 21.2344C359.532 21.152 359.45 21.1017 359.363 21.1065L358.174 21.171L357.539 20.1002C357.492 20.0216 357.406 19.9792 357.32 19.9923C357.233 20.0053 357.164 20.0711 357.142 20.16L356.851 21.3702L355.695 21.6586C355.611 21.6798 355.547 21.752 355.533 21.8423C355.519 21.9328 355.558 22.0239 355.632 22.0741L356.641 22.7578L356.562 24.0071C356.557 24.0989 356.603 24.186 356.681 24.2288C356.724 24.2519 356.77 24.2596 356.815 24.2529C356.853 24.2472 356.889 24.2307 356.92 24.2041L357.835 23.4165L358.941 23.8999C359.023 23.9353 359.115 23.917 359.177 23.8531C359.239 23.7892 359.258 23.6922 359.226 23.6061L358.782 22.4355L359.545 21.4851C359.601 21.4154 359.612 21.317 359.572 21.2344V21.2344Z" fill="#FEAF45"/>
<path d="M341.791 50.3882C341.764 50.3081 341.701 50.2539 341.629 50.25L340.652 50.1971L340.211 49.1464C340.179 49.0692 340.111 49.0219 340.04 49.0258C339.968 49.0296 339.906 49.0839 339.882 49.1641L339.556 50.2561L338.591 50.4134C338.52 50.4251 338.463 50.4858 338.445 50.5681C338.427 50.6505 338.452 50.7385 338.509 50.7919L339.284 51.5199L339.129 52.6682C339.118 52.7526 339.15 52.8375 339.21 52.8845C339.243 52.9099 339.281 52.9215 339.317 52.9195C339.349 52.9178 339.38 52.9061 339.407 52.8843L340.213 52.2423L341.082 52.7943C341.145 52.8348 341.222 52.8266 341.278 52.7734C341.333 52.7201 341.356 52.6322 341.335 52.5495L341.058 51.4245L341.751 50.6176C341.801 50.5584 341.817 50.4684 341.791 50.3882V50.3882Z" fill="#FEAF45"/>
<path d="M346.742 49.3574C346.716 49.2774 346.652 49.2231 346.581 49.2193L345.604 49.1664L345.163 48.1157C345.13 48.0385 345.063 47.9912 344.992 47.995C344.92 47.9989 344.858 48.0531 344.834 48.1334L344.508 49.2253L343.543 49.3827C343.472 49.3943 343.415 49.4551 343.397 49.5373C343.379 49.6197 343.404 49.7077 343.461 49.7611L344.236 50.4891L344.081 51.6374C344.07 51.7218 344.102 51.8068 344.162 51.8538C344.195 51.8792 344.233 51.8907 344.269 51.8887C344.301 51.887 344.332 51.8753 344.359 51.8536L345.165 51.2116L346.034 51.7635C346.097 51.804 346.174 51.7958 346.23 51.7426C346.285 51.6893 346.308 51.6015 346.287 51.5187L346.01 50.3937L346.703 49.5868C346.753 49.5276 346.769 49.4376 346.742 49.3574V49.3574Z" fill="#FEAF45"/>
<path d="M351.701 48.2844C351.675 48.2044 351.611 48.1501 351.54 48.1463L350.563 48.0934L350.122 47.0427C350.089 46.9655 350.022 46.9182 349.95 46.922C349.879 46.9259 349.817 46.9801 349.793 47.0604L349.467 48.1523L348.501 48.3097C348.431 48.3213 348.373 48.3821 348.356 48.4643C348.338 48.5467 348.363 48.6347 348.42 48.6881L349.195 49.4161L349.04 50.5644C349.028 50.6488 349.06 50.7338 349.121 50.7808C349.154 50.8062 349.191 50.8177 349.228 50.8157C349.26 50.814 349.291 50.8023 349.318 50.7806L350.123 50.1386L350.992 50.6905C351.056 50.731 351.133 50.7228 351.188 50.6696C351.244 50.6163 351.266 50.5285 351.246 50.4457L350.969 49.3207L351.661 48.5138C351.712 48.4546 351.728 48.3646 351.701 48.2844V48.2844Z" fill="#FEAF45"/>
<path d="M356.643 47.3731C356.617 47.2931 356.553 47.2389 356.482 47.235L355.505 47.1821L355.064 46.1314C355.031 46.0542 354.964 46.0069 354.892 46.0108C354.82 46.0146 354.759 46.0689 354.735 46.1491L354.409 47.2411L353.443 47.3984C353.373 47.4101 353.315 47.4708 353.297 47.5531C353.28 47.6355 353.305 47.7235 353.362 47.7769L354.137 48.5049L353.982 49.6531C353.97 49.7376 354.002 49.8225 354.063 49.8695C354.096 49.8949 354.133 49.9065 354.17 49.9045C354.202 49.9028 354.233 49.891 354.26 49.8693L355.065 49.2273L355.934 49.7793C355.998 49.8197 356.075 49.8116 356.13 49.7583C356.186 49.7051 356.208 49.6172 356.188 49.5345L355.911 48.4095L356.603 47.6026C356.654 47.5434 356.67 47.4534 356.643 47.3731V47.3731Z" fill="#FEAF45"/>
<path d="M361.554 46.3861C361.525 46.3062 361.453 46.2524 361.372 46.2491L360.265 46.2031L359.773 45.1552C359.736 45.0782 359.66 45.0314 359.579 45.0358C359.498 45.0401 359.427 45.0949 359.4 45.1753L359.022 46.27L357.927 46.4343C357.846 46.4465 357.781 46.5077 357.76 46.5901C357.739 46.6727 357.767 46.7605 357.831 46.8135L358.705 47.5363L358.521 48.6861C358.507 48.7706 358.543 48.8554 358.611 48.902C358.648 48.9271 358.691 48.9384 358.732 48.9362C358.768 48.9342 358.804 48.9223 358.835 48.9004L359.752 48.2523L360.733 48.7983C360.805 48.8383 360.893 48.8296 360.956 48.7759C361.019 48.7222 361.045 48.6341 361.023 48.5515L360.716 47.4281L361.507 46.6159C361.565 46.5563 361.584 46.4661 361.554 46.3861V46.3861Z" fill="#D2DBEE"/>
<path d="M336.771 34.2341L358.481 27.8658M337.06 38.2866L352.981 33.6551" stroke="#CDDCFF" stroke-width="2" stroke-linecap="round"/>
<path d="M339.665 56.5223L348.639 54.7855M339.665 61.1537L361.665 56.8118" stroke="#CDDCFF" stroke-width="2" stroke-linecap="round"/>
<path d="M310.453 69.2559L310.189 33.4503C310.164 30.0942 306.905 27.715 303.701 28.7137L253.924 44.2292C251.835 44.8804 250.412 46.8144 250.412 49.0027V76.1892C250.412 79.2219 253.09 81.5564 256.094 81.1423L306.136 74.246C308.624 73.9031 310.472 71.7675 310.453 69.2559Z" fill="#E8EBF2"/>
<path fill-rule="evenodd" clip-rule="evenodd" d="M310.191 31.6246H306.09L250.984 46.4218C251.532 45.3726 252.448 44.5276 253.599 44.0786L301.833 25.274C302.352 25.0717 302.901 24.9575 303.457 24.9361L304.987 24.8773C307.808 24.7688 310.159 27.0154 310.179 29.8382L310.191 31.6246Z" fill="#D2DBEE"/>
<path d="M306.167 69.7564V30.7625C306.167 27.2732 302.683 24.8569 299.415 26.0795L249.341 44.8122C247.387 45.543 246.093 47.4095 246.093 49.4952V76.601C246.093 79.6316 248.767 81.9654 251.77 81.5549L301.844 74.7103C304.32 74.3718 306.167 72.2561 306.167 69.7564Z" fill="#EFF2FA"/>
<path fill-rule="evenodd" clip-rule="evenodd" d="M246.172 50.4453L306.091 31.6301L306.167 31.2422V30.762C306.167 27.2726 302.683 24.8563 299.415 26.0789L249.341 44.8116C247.387 45.5424 246.093 47.409 246.093 49.4946V50.4851L246.172 50.4453Z" fill="#DEE5F5"/>
<path d="M249.642 55.783C249.642 53.6309 251.019 51.7202 253.061 51.0396L255.218 50.3204C258.456 49.2412 261.8 51.651 261.8 55.0638V57.3951C261.8 59.8833 259.97 61.9929 257.507 62.3448L255.349 62.653C252.337 63.0833 249.642 60.746 249.642 57.7033V55.783Z" fill="#DEE5F5"/>
<g filter="url(#filter3_d_1780_1979)">
<path d="M249.933 70.2115C249.933 67.8109 251.639 65.749 253.998 65.2998L256.155 64.8889C259.236 64.302 262.091 66.664 262.091 69.8006V71.8688C262.091 74.357 260.261 76.4666 257.798 76.8185L255.64 77.1268C252.628 77.5571 249.933 75.2198 249.933 72.177V70.2115Z" fill="#3D58FF"/>
</g>
<path d="M256.468 74.9704L254.731 73.2336L256.179 72.3652L258.784 74.9704H256.468Z" fill="#CDD4FF"/>
<path d="M256.179 67.1553L252.416 70.9183L253.574 72.0762L258.784 67.1553H256.179Z" fill="white"/>
<path d="M254.153 72.6551L256.179 70.6288H258.784L255.311 73.813L254.153 72.6551Z" fill="white"/>
<path d="M264.985 52.0206C264.985 49.8684 266.362 47.9577 268.404 47.2771L270.562 46.558C273.799 45.4788 277.143 47.8886 277.143 51.3014V54.501C277.143 56.9892 275.313 59.0989 272.85 59.4507L270.692 59.759C267.68 60.1893 264.985 57.852 264.985 54.8092V52.0206Z" fill="#DEE5F5"/>
<path d="M267.226 51.7948C266.904 51.5753 267.522 50.7807 268.046 50.6547C268.514 50.542 271.846 53.6537 273.752 55.2742L273.812 55.5566L273.396 56.2514L272.615 56.865C270.924 55.3909 267.634 52.0724 267.226 51.7948Z" fill="#A8BBE4"/>
<path d="M268.337 55.8645C268.081 56.1655 267.204 55.285 267.179 54.7067C267.156 54.1894 270.454 50.488 272.262 48.7669L272.53 48.7552L273.399 50.1658C271.762 51.6862 268.66 55.4838 268.337 55.8645Z" fill="#BDCDF0"/>
<path d="M272.544 49.0449C272.534 48.8135 272.352 48.7635 272.263 48.7675C272.468 48.5267 273.806 49.1828 274.449 49.5409L274.728 55.9031L272.617 56.8647C272.617 56.8647 272.878 56.6602 272.873 56.5638L272.544 49.0449Z" fill="#CDDAF6"/>
<path d="M265.276 67.3174C265.276 64.9167 266.983 62.8549 269.341 62.4057L271.498 61.9947C274.58 61.4078 277.434 63.7699 277.434 66.9064V70.0289C277.434 72.5617 275.54 74.6944 273.025 74.9938L270.868 75.2507C267.893 75.6048 265.276 73.2815 265.276 70.2857V67.3174Z" fill="#DEE5F5"/>
<rect x="268.625" y="64.2604" width="5.21036" height="2.89464" rx="1.44732" fill="#CDDAF6"/>
<path d="M268.625 68.6026C268.625 67.8033 269.273 67.1553 270.072 67.1553H271.519V70.0499H270.072C269.273 70.0499 268.625 69.4019 268.625 68.6026V68.6026Z" fill="#BDCDF0"/>
<path d="M274.417 65.7077C274.417 64.9084 273.769 64.2604 272.97 64.2604H271.522V67.155H272.97C273.769 67.155 274.417 66.507 274.417 65.7077V65.7077Z" fill="#BDCDF0"/>
<path d="M268.625 71.4968C268.625 70.6974 269.273 70.0494 270.072 70.0494H271.519V71.6283C271.519 72.355 270.93 72.9441 270.204 72.9441H270.072C269.273 72.9441 268.625 72.2961 268.625 71.4968V71.4968Z" fill="#A7BBE4"/>
<circle cx="272.967" cy="68.6026" r="1.44732" fill="#A7BBE4"/>
<path d="M255.12 51.311C255.028 51.3394 254.949 51.43 254.905 51.5601L253.445 55.9037C253.395 56.0519 253.394 56.2275 253.443 56.3765L253.87 57.6808C253.928 57.858 254.047 57.97 254.176 57.97H256.143C256.276 57.97 256.397 57.8518 256.453 57.6672L256.849 56.3649C256.892 56.2222 256.891 56.0573 256.846 55.9159L255.462 51.5693C255.427 51.4577 255.365 51.3739 255.291 51.3318V55.5021C255.439 55.5602 255.548 55.765 255.548 56.0087C255.548 56.2975 255.395 56.5317 255.206 56.5317C255.017 56.5317 254.863 56.2975 254.863 56.0087C254.863 55.765 254.972 55.5602 255.12 55.5021V51.311Z" fill="#BDCDF0"/>
<path d="M253.751 58.7545C253.751 58.4656 253.904 58.2315 254.093 58.2315H256.318C256.507 58.2315 256.661 58.4656 256.661 58.7545C256.661 59.0433 256.507 59.2775 256.318 59.2775H254.093C253.904 59.2775 253.751 59.0433 253.751 58.7545Z" fill="#BDCDF0"/>
<path d="M254.345 60.0509C254.345 59.762 254.499 59.5279 254.688 59.5279H255.8C255.989 59.5279 256.143 59.762 256.143 60.0509C256.143 60.3397 255.989 60.5739 255.8 60.5739H254.688C254.499 60.5739 254.345 60.3397 254.345 60.0509Z" fill="#BDCDF0"/>
<path d="M281.651 51.5241L301.913 46.0243M281.94 55.8661L298.729 51.5241M281.651 63.9711L299.887 60.2081M281.651 68.892L301.913 65.4184M281.651 47.4716L294.387 43.998" stroke="#CDDCFF" stroke-width="2" stroke-linecap="round"/>
<path d="M296.417 120.04V87.8685C296.417 84.8618 293.782 82.5351 290.798 82.9068L251.011 87.8638C248.507 88.1756 246.629 90.3031 246.629 92.8254V115.614C246.629 118.161 248.544 120.301 251.076 120.583L290.864 125.009C293.826 125.338 296.417 123.02 296.417 120.04Z" fill="#E8EBF2"/>
<path fill-rule="evenodd" clip-rule="evenodd" d="M282.475 84.0307L290.808 83.0121C293.788 82.6479 296.415 84.9732 296.415 87.9752V90.1941H292.784C289.965 88.5406 285.239 85.7417 282.475 84.0307Z" fill="#D2DBEE"/>
<path d="M292.943 120.047V88.4375C292.943 85.4341 290.314 83.1085 287.333 83.4749L247.545 88.3658C245.038 88.6739 243.155 90.8029 243.155 93.3284V115.68C243.155 118.231 245.074 120.372 247.609 120.651L287.397 125.017C290.357 125.342 292.943 123.025 292.943 120.047Z" fill="#EFF2FA"/>
<path fill-rule="evenodd" clip-rule="evenodd" d="M292.941 90.298L243.258 92.8338L243.213 92.562C243.552 90.3867 245.297 88.6487 247.543 88.3726L287.331 83.4826C290.312 83.1163 292.941 85.4419 292.941 88.4453V90.298Z" fill="#DEE5F5"/>
<g filter="url(#filter4_d_1780_1979)">
<path d="M245.47 99.5332C245.47 96.8211 247.632 94.6034 250.344 94.5348L251.922 94.4949C254.732 94.4238 257.049 96.6824 257.049 99.4933V113.146C257.049 116.107 254.489 118.42 251.542 118.12L249.964 117.959C247.412 117.7 245.47 115.55 245.47 112.985V99.5332Z" fill="white"/>
<path d="M255.89 101.602C255.89 100.319 255.448 99.0869 254.659 98.1681C253.869 97.2492 252.794 96.7161 251.662 96.6824C250.531 96.6486 249.433 97.1168 248.601 97.9873C247.77 98.8578 247.272 100.062 247.212 101.343C247.153 102.624 247.537 103.88 248.283 104.845C249.029 105.809 250.077 106.406 251.206 106.507C252.334 106.608 253.452 106.206 254.323 105.387C255.193 104.567 255.747 103.394 255.866 102.119L254.007 101.896C253.939 102.622 253.624 103.29 253.128 103.757C252.632 104.223 251.995 104.452 251.353 104.395C250.711 104.337 250.114 103.997 249.689 103.448C249.264 102.899 249.046 102.183 249.079 101.454C249.113 100.725 249.397 100.039 249.87 99.5438C250.344 99.0482 250.969 98.7816 251.613 98.8008C252.257 98.82 252.869 99.1236 253.319 99.6467C253.769 100.17 254.02 100.871 254.02 101.602H255.89Z" fill="#DEE5F5"/>
<path d="M255.89 101.602C255.89 102.761 255.529 103.884 254.87 104.771C254.21 105.658 253.296 106.253 252.288 106.451C251.279 106.648 250.242 106.436 249.358 105.851C248.475 105.266 247.802 104.346 247.458 103.253C247.115 102.161 247.123 100.966 247.481 99.8795C247.839 98.7931 248.524 97.8849 249.415 97.3152C250.307 96.7455 251.347 96.551 252.353 96.7659C253.358 96.9807 254.265 97.5913 254.912 98.4897L253.463 99.8298C253.095 99.3183 252.579 98.9707 252.006 98.8484C251.434 98.726 250.841 98.8368 250.334 99.1611C249.826 99.4855 249.436 100.003 249.232 100.621C249.028 101.24 249.024 101.92 249.219 102.542C249.415 103.164 249.798 103.688 250.301 104.021C250.804 104.354 251.395 104.475 251.969 104.362C252.543 104.25 253.064 103.911 253.439 103.406C253.814 102.901 254.02 102.262 254.02 101.602H255.89Z" fill="#48C5A1"/>
<path d="M248.365 108.838L254.443 109.127M249.812 111.443L252.996 111.733" stroke="#CDDCFF" stroke-width="2" stroke-linecap="round"/>
</g>
<g filter="url(#filter5_d_1780_1979)">
<path d="M259.364 98.9831C259.364 96.2675 261.531 94.0483 264.246 93.9844L267.561 93.9064C270.368 93.8404 272.679 96.0976 272.679 98.905V114.554C272.679 117.53 270.096 119.847 267.139 119.525L263.823 119.165C261.286 118.889 259.364 116.746 259.364 114.194V98.9831Z" fill="white"/>
<path d="M270.941 101.313C270.941 99.8037 270.441 98.3543 269.546 97.2733C268.651 96.1923 267.432 95.5652 266.15 95.5254C264.868 95.4857 263.623 96.0366 262.681 97.0607C261.739 98.0848 261.174 99.5012 261.106 101.008C261.039 102.515 261.474 103.993 262.32 105.128C263.165 106.263 264.354 106.965 265.632 107.084C266.911 107.203 268.179 106.73 269.165 105.766C270.152 104.801 270.779 103.422 270.914 101.921L268.807 101.659C268.73 102.514 268.373 103.299 267.811 103.848C267.249 104.397 266.528 104.666 265.799 104.599C265.071 104.531 264.395 104.131 263.913 103.485C263.432 102.839 263.184 101.997 263.223 101.139C263.261 100.281 263.583 99.4749 264.119 98.8918C264.656 98.3088 265.364 97.9951 266.094 98.0177C266.824 98.0404 267.518 98.3974 268.028 99.0129C268.537 99.6284 268.822 100.454 268.822 101.313H270.941Z" fill="#DEE5F5"/>
<path d="M261.674 98.5984C261.999 97.8778 262.45 97.2462 262.997 96.7449C263.544 96.2437 264.175 95.8841 264.849 95.6899C265.522 95.4957 266.223 95.4711 266.905 95.6178C267.588 95.7646 268.236 96.0793 268.807 96.5413C269.379 97.0033 269.861 97.6023 270.222 98.2989C270.583 98.9955 270.815 99.7739 270.902 100.583C270.99 101.393 270.931 102.215 270.729 102.995C270.527 103.776 270.188 104.498 269.733 105.113L268.134 103.476C268.393 103.126 268.587 102.715 268.701 102.271C268.816 101.826 268.85 101.358 268.8 100.897C268.75 100.437 268.618 99.9934 268.413 99.5968C268.207 99.2002 267.933 98.8592 267.607 98.5961C267.282 98.3331 266.913 98.1539 266.524 98.0703C266.136 97.9868 265.737 98.0008 265.353 98.1114C264.97 98.222 264.611 98.4267 264.299 98.712C263.988 98.9974 263.731 99.357 263.546 99.7673L261.674 98.5984Z" fill="#F65D6D"/>
<path d="M262.837 109.417L268.916 109.706M264.285 112.022L267.469 112.311" stroke="#CDDCFF" stroke-width="2" stroke-linecap="round"/>
</g>
<g filter="url(#filter6_d_1780_1979)">
<path d="M274.993 97.8507C274.993 95.13 277.169 92.9086 279.889 92.8518L285.52 92.7343C288.321 92.6758 290.624 94.9309 290.624 97.7332V116.548C290.624 119.535 288.023 121.855 285.055 121.516L279.424 120.871C276.899 120.582 274.993 118.445 274.993 115.903V97.8507Z" fill="white"/>
<path d="M288.887 101.023C288.887 99.2878 288.268 97.621 287.162 96.3778C286.057 95.1347 284.552 94.4135 282.968 94.3678C281.384 94.3221 279.846 94.9556 278.683 96.1333C277.519 97.311 276.821 98.9398 276.737 100.673C276.654 102.406 277.192 104.106 278.236 105.411C279.28 106.716 280.749 107.523 282.328 107.66C283.908 107.797 285.474 107.253 286.692 106.144C287.911 105.035 288.686 103.449 288.853 101.723L286.25 101.422C286.155 102.404 285.713 103.307 285.02 103.939C284.326 104.57 283.434 104.88 282.535 104.802C281.635 104.724 280.8 104.265 280.205 103.521C279.61 102.778 279.304 101.81 279.352 100.824C279.399 99.837 279.796 98.9097 280.459 98.2391C281.122 97.5686 281.997 97.2079 282.899 97.2339C283.801 97.2599 284.658 97.6706 285.287 98.3783C285.917 99.0861 286.269 100.035 286.269 101.023H288.887Z" fill="#DEE5F5"/>
<path d="M288.887 101.023C288.887 102.118 288.64 103.196 288.169 104.162C287.698 105.127 287.016 105.951 286.185 106.559C285.354 107.167 284.398 107.541 283.404 107.649C282.409 107.756 281.405 107.593 280.482 107.174C279.558 106.755 278.743 106.093 278.109 105.247C277.475 104.4 277.041 103.396 276.846 102.322C276.651 101.248 276.701 100.138 276.991 99.0905C277.281 98.0428 277.803 97.0897 278.509 96.3155L280.361 98.3428C279.958 98.7836 279.661 99.3263 279.496 99.9228C279.331 100.519 279.302 101.151 279.413 101.763C279.524 102.374 279.771 102.946 280.132 103.428C280.494 103.91 280.958 104.287 281.483 104.525C282.009 104.764 282.581 104.857 283.147 104.795C283.713 104.734 284.257 104.521 284.731 104.175C285.204 103.829 285.592 103.36 285.86 102.81C286.128 102.26 286.269 101.647 286.269 101.023H288.887Z" fill="#EC9216"/>
<path d="M279.624 110.575L285.702 110.865M281.071 113.18L284.255 113.47" stroke="#CDDCFF" stroke-width="2" stroke-linecap="round"/>
</g>
<path d="M313.038 187.17L313.077 138.328C313.079 135.75 311.121 133.593 308.554 133.347L246.966 127.441C243.847 127.142 241.224 129.754 241.51 132.875L244.927 170.154C245.109 172.144 246.458 173.834 248.358 174.452L304.717 192.807C305.967 193.214 307.326 193.112 308.502 192.525L310.274 191.638C311.967 190.792 313.037 189.063 313.038 187.17Z" fill="#E8EBF2"/>
<mask id="mask0_1780_1979" style="mask-type:alpha" maskUnits="userSpaceOnUse" x="241" y="127" width="73" height="67">
<path d="M312.994 187.164L313.033 138.328C313.035 135.749 311.076 133.592 308.509 133.347L246.678 127.437C243.558 127.139 240.937 129.752 241.224 132.873L244.652 170.15C244.835 172.141 246.186 173.831 248.087 174.448L304.658 192.809C305.904 193.213 307.259 193.113 308.432 192.528L310.224 191.635C311.92 190.79 312.993 189.059 312.994 187.164Z" fill="#E8EBF2"/>
</mask>
<g mask="url(#mask0_1780_1979)">
<path d="M313.617 142.205L308.696 143.363L240.093 132.074L242.987 125.126L313.906 132.074L313.617 142.205Z" fill="#D2DBEE"/>
</g>
<path d="M308.76 187.087V137.715C308.76 135.144 306.81 132.992 304.251 132.739L246.398 127.028C243.456 126.737 240.906 129.048 240.906 132.003V168.847C240.906 171.029 242.322 172.96 244.403 173.616L302.256 191.856C305.478 192.872 308.76 190.466 308.76 187.087Z" fill="#EFF2FA"/>
<mask id="mask1_1780_1979" style="mask-type:alpha" maskUnits="userSpaceOnUse" x="240" y="127" width="69" height="66">
<path d="M308.76 187.087V137.715C308.76 135.144 306.81 132.992 304.251 132.739L246.398 127.028C243.456 126.737 240.906 129.048 240.906 132.003V168.847C240.906 171.029 242.322 172.96 244.403 173.616L302.256 191.856C305.478 192.872 308.76 190.466 308.76 187.087Z" fill="#EFF2FA"/>
</mask>
<g mask="url(#mask1_1780_1979)">
<path d="M312.748 143.942L238.645 133.521L240.96 124.548L312.748 133.521V143.942Z" fill="#DEE5F5"/>
</g>
<path d="M250.968 145.891C254.152 147.242 260.019 151.528 261.099 157.47C261.678 160.654 269.204 154.575 271.23 153.417C273.744 151.981 285.704 144.154 285.993 158.627C286.225 170.206 295.738 169.434 300.466 167.601" stroke="#DEE5F5" stroke-width="2"/>
<g filter="url(#filter7_d_1780_1979)">
<path d="M251.404 151.572C251.404 151.572 257.639 155.701 260.088 153.308C262.614 150.84 267.554 142.524 272.726 147.405C277.898 152.285 275.6 157.76 279.626 157.874C286.094 158.058 287.592 152.665 292.439 155.347C295.684 157.144 293.6 164.116 300.013 163.969" stroke="#3D58FF" stroke-width="3" stroke-linecap="round" stroke-linejoin="round"/>
</g>
<ellipse cx="247.781" cy="166.153" rx="1.73679" ry="2.31572" fill="#3D58FF"/>
<path d="M252.992 165.864L263.413 169.338M252.992 168.759L258.781 170.785M274.123 173.101C274.354 173.101 277.5 174.066 279.044 174.548M274.123 175.995L281.649 178.6M292.07 180.627L300.464 183.521" stroke="#CDDCFF" stroke-width="2" stroke-linecap="round"/>
<ellipse cx="269.205" cy="173.68" rx="1.73679" ry="2.31572" fill="#E44758"/>
<ellipse cx="288.887" cy="179.469" rx="1.73679" ry="2.31572" fill="#0CAF80"/>
<path d="M197.211 70.1907C203.953 66.7332 204.198 72.0635 203.478 75.1608L142.324 75.1608C142.842 69.6288 148.014 70.1186 150.535 71.055C154.338 66.906 159.755 68.0297 161.988 69.1102C164.408 66.8628 166.742 68.1738 167.607 69.1103C175.905 59.2564 185.038 65.0045 188.568 69.1103C192.717 65.8257 196.059 68.4619 197.211 70.1907Z" fill="#EFF2FA"/>
<circle r="7.5" transform="matrix(-1 0 0 1 179.986 229.195)" stroke="#242E6C" stroke-width="6.60933"/>
<circle r="7.5" transform="matrix(-1 0 0 1 72.8028 224.442)" stroke="#242E6C" stroke-width="6.60933"/>
<path d="M171.558 193.972C167.885 202.976 157.296 221.287 152.974 222.497C148.653 223.707 156.792 222.497 160.322 222.497L163.474 219.078L176.745 214.717L176.096 211.692L167.149 215.092L175.664 205.858L171.558 193.972Z" fill="#E44758"/>
<rect width="2.88571" height="105.221" rx="1.44286" transform="matrix(-0.983918 0.178622 0.178622 0.983918 161.192 118.123)" fill="#9D303C"/>
<path d="M114.855 212.259L123.886 194.567L113.723 192.227L107.087 209.598C103.303 211.043 102.846 215.531 102.784 217.489L127.52 225.964C128.366 222.827 127.151 221.04 122.175 219.564C118.194 218.383 115.636 214.202 114.855 212.259Z" fill="#FFAD95"/>
<mask id="mask2_1780_1979" style="mask-type:alpha" maskUnits="userSpaceOnUse" x="102" y="192" width="26" height="34">
<path d="M114.855 212.259L123.886 194.567L113.723 192.227L107.087 209.598C103.303 211.043 102.846 215.531 102.784 217.489L127.52 225.964C128.366 222.827 127.151 221.04 122.175 219.564C118.194 218.383 115.636 214.202 114.855 212.259Z" fill="#FFAD95"/>
</mask>
<g mask="url(#mask2_1780_1979)">
<path d="M109.703 199.301C112.819 199.272 118.077 203.083 120.316 204.993L114.963 215.95L103.422 214.966C104.217 209.756 106.587 199.329 109.703 199.301Z" fill="white"/>
<path d="M109.205 201.415C113.087 201.283 117.664 205.836 119.468 208.129L117.406 209.478C115.364 205.306 110.621 203.727 108.504 203.459L109.205 201.415Z" fill="#EC9216"/>
<path d="M110.006 211.741C108.935 208.999 107.523 208.987 106.951 209.324L103.582 211.824L101.481 217.957L129.014 226.933C128.64 225.358 127.879 222.113 127.827 221.73C127.776 221.347 119.562 215.852 115.461 213.153C114.089 213.825 111.077 214.484 110.006 211.741Z" fill="#3D58FF"/>
<path d="M107.382 214.99C107.787 216.006 112.569 219.888 114.91 221.702L103.82 220.822C103.117 218.626 102.123 213.863 103.77 212.384C105.828 210.534 106.839 213.073 106.852 213.289L106.852 213.289C106.864 213.505 106.877 213.721 107.382 214.99Z" fill="#2D44D5"/>
<path fill-rule="evenodd" clip-rule="evenodd" d="M120.384 221.462C114.865 219.571 111.233 215.905 109.741 211.191C109.723 211.135 109.707 211.08 109.693 211.025C109.801 211.24 109.907 211.478 110.009 211.741C110.467 212.914 110.814 212.385 111.371 211.538C112.115 210.404 113.234 208.701 115.493 209.736C118.018 211.399 122.093 215.417 124.863 218.348L125.448 220.684L120.384 221.462Z" fill="#6B80FD"/>
<path d="M118.495 223.402C116.266 226.965 124.425 227.067 128.883 226.658L127.907 220.841L125.927 220.62C124.744 219.931 121.858 219.425 119.233 222.438L102.728 216.327L102.302 218.237L118.495 223.402Z" fill="white"/>
<path d="M117.795 220.347C118.164 219.713 119.957 218.302 121.976 218.81M115.143 218.754C115.512 218.119 116.621 216.839 118.097 216.796M112.362 216.202C112.572 215.589 114.704 214.035 116.409 214.391" stroke="white" stroke-width="2" stroke-linecap="round"/>
</g>
<path d="M115.323 213.561C117.052 213.849 120.486 213.959 120.392 212.1C120.298 210.24 116.974 212.299 115.323 213.561ZM115.323 213.561C115.72 212.402 116.158 210.192 114.733 210.617C113.308 211.043 114.532 212.757 115.323 213.561Z" stroke="#2537A9"/>
<rect width="67.8533" height="4.75405" rx="2.37703" transform="matrix(-1 0 0 1 157.081 224.008)" fill="#9D303C"/>
<path d="M67.8314 203.48C85.6375 205.209 89.3687 217.454 89.0085 223.361L81.8774 222.496C77.3827 209.876 66.4628 210.755 61.5647 212.772C56.2344 208.954 50.0253 201.751 67.8314 203.48Z" fill="#E44758"/>
<path d="M160.536 223.793C160.536 222.719 159.665 221.848 158.591 221.848H72.5861C71.512 221.848 70.6412 222.719 70.6412 223.793V223.793C70.6412 224.867 71.512 225.738 72.5861 225.738H158.591C159.665 225.738 160.536 224.867 160.536 223.793V223.793Z" fill="#F65D6D"/>
<path d="M104.571 213.205L107.38 193.541L97.0072 194.621L96.359 213.205C93.2472 215.798 94.2701 220.192 94.8463 222.065H120.994C120.777 218.824 119.049 217.527 113.863 217.743C109.714 217.916 105.939 214.79 104.571 213.205Z" fill="#FFAD95"/>
<mask id="mask3_1780_1979" style="mask-type:alpha" maskUnits="userSpaceOnUse" x="94" y="193" width="27" height="30">
<path d="M104.571 213.205L107.38 193.541L97.0072 194.621L96.359 213.205C93.2472 215.798 94.2701 220.192 94.8463 222.065H120.994C120.777 218.824 119.049 217.527 113.863 217.743C109.714 217.916 105.939 214.79 104.571 213.205Z" fill="#FFAD95"/>
</mask>
<g mask="url(#mask3_1780_1979)">
<path d="M95.4946 202.617C98.4335 201.58 104.643 203.481 107.38 204.562L105.867 216.663L94.6303 219.472C93.6939 214.286 92.5558 203.654 95.4946 202.617Z" fill="white"/>
<path d="M95.7107 204.777C99.3411 203.394 105.147 206.218 107.596 207.802L106.083 209.747C102.799 206.462 97.7996 206.506 95.7107 206.938V204.777Z" fill="#EC9216"/>
<path d="M99.8154 214.286C97.9137 212.038 96.574 212.485 96.1418 212.989L93.7648 216.446V222.929L122.721 222.497C121.857 221.128 120.085 218.305 119.912 217.959C119.739 217.613 110.188 215.078 105.434 213.853C104.353 214.934 101.717 216.533 99.8154 214.286Z" fill="#3D58FF"/>
<path fill-rule="evenodd" clip-rule="evenodd" d="M112.784 220.122C106.95 220.122 102.325 217.831 99.3865 213.855C99.3504 213.806 99.3163 213.757 99.2843 213.709C99.457 213.878 99.6352 214.07 99.8187 214.287C100.632 215.248 100.789 214.635 101.041 213.653C101.378 212.34 101.884 210.365 104.357 210.613C107.284 211.367 112.44 213.847 116.011 215.722L117.322 217.745L112.784 220.122Z" fill="#6B80FD"/>
<path d="M111.624 222.567C110.67 226.66 118.421 224.112 122.507 222.281L119.698 217.094L117.753 217.527C116.41 217.258 113.517 217.715 112.009 221.416L94.4148 220.984L94.6309 222.929L111.624 222.567Z" fill="white"/>
<path d="M109.973 219.904C110.117 219.184 111.355 217.268 113.43 217.095M106.947 219.256C107.091 218.536 107.725 216.966 109.108 216.447M103.49 217.743C103.49 217.095 105.002 214.934 106.731 214.718" stroke="white" stroke-width="2" stroke-linecap="round"/>
</g>
<path d="M105.436 214.287C107.165 213.998 110.45 212.99 109.758 211.261C109.067 209.533 106.589 212.558 105.436 214.287ZM105.436 214.287C105.436 213.062 105.134 210.829 103.924 211.693C102.714 212.558 104.428 213.782 105.436 214.287Z" stroke="#2537A9"/>
<path d="M143.468 76.6336C141.394 73.349 140.155 69.0703 139.795 67.3416L135.041 64.3163L130.503 69.9347C130.719 73.5363 131.713 81.0419 133.96 82.252C136.208 83.4621 138.354 82.6122 139.362 81.6037C139.881 83.5054 137.85 83.8367 136.553 84.1969C138.109 84.3697 138.354 85.7095 138.282 86.3578C144.116 85.2773 146.061 81.1716 143.468 76.6336Z" fill="#FFCA63"/>
<path d="M137.633 172.363C137.633 168.041 131.15 136.491 128.34 120.068L99.8162 121.148L122.506 170.634C121.469 172.017 115.159 185.256 112.782 190.082C112.134 190.082 111.917 189.866 111.485 190.514C111.053 191.163 111.485 195.268 112.998 194.836C114.511 194.404 121.209 197.213 122.506 197.429C123.803 197.645 123.37 198.294 125.099 195.917C126.482 194.015 125.675 193.107 125.099 192.891C128.989 188.642 137.633 176.684 137.633 172.363Z" fill="#DCEBF1"/>
<path d="M126.858 84.0456C126.86 84.1582 126.863 84.2735 126.866 84.3913C126.588 84.5778 126.229 84.8108 125.772 85.0992C122.225 87.339 126.236 105.431 126.683 106.202C127.13 106.972 132.298 108.882 129.761 104.719C127.774 101.456 127.011 90.0298 126.866 84.3913C128.314 83.4191 127.547 83.7138 126.858 84.0456Z" fill="white"/>
<path d="M128.417 71.69C127.906 70.078 131.403 66.0798 135.69 65.532C139.977 64.9841 141.853 72.4999 141.999 72.9605L136.029 73.6364C134.699 74.0242 131.951 74.5236 131.6 73.4181C131.162 72.0362 132.987 72.6745 133.616 71.4613C134.245 70.248 133.032 69.3521 131.349 69.7466C130.122 70.0342 128.835 73.009 128.417 71.69Z" fill="#FFAD95"/>
<path fill-rule="evenodd" clip-rule="evenodd" d="M141.105 70.3504C141.064 70.3499 141.019 70.3458 140.971 70.3379C139.235 70.0484 134.892 68.6005 133.156 67.1538L134.039 65.9171C134.57 65.7376 135.123 65.6049 135.69 65.5325C135.7 65.5312 135.71 65.53 135.719 65.5288L138.702 66.6024C139.776 67.5847 140.567 69.0636 141.105 70.3504Z" fill="#FF948D"/>
<path d="M135.032 73.5701C137.428 71.0957 141.716 70.9394 143.56 71.1706C146.941 77.1217 155.876 94.3161 156.891 99.4662C158.16 105.904 149.686 111.584 143.417 109.077C133.905 105.272 121.465 70.3411 135.454 75.0612L135.032 73.5701Z" fill="#2A3EC0"/>
<path fill-rule="evenodd" clip-rule="evenodd" d="M134.942 99.3158C138.926 102.123 148.291 107.44 154.288 106.518C154.304 106.515 154.321 106.513 154.337 106.51C151.556 109.19 147.104 110.55 143.416 109.075C140.593 107.946 137.513 104.076 134.942 99.3158Z" fill="#213094"/>
<path d="M135.298 75.0102L143.622 100.369C140.021 93.4234 133.244 79.2237 133.129 74.6236C133.765 74.6256 134.486 74.7496 135.298 75.0102Z" fill="#213094"/>
<path fill-rule="evenodd" clip-rule="evenodd" d="M120.907 120.351L116.393 157.3L122.064 169.666L121.01 120.347L120.907 120.351Z" fill="#AFD4E2"/>
<path d="M117.752 168.256C120.345 161.514 121.642 130.872 120.561 116.61C115.231 114.881 99.7174 113.115 98.9519 119.851C97.8714 129.359 101.329 154.858 101.761 159.396C102.107 163.027 96.7189 184.103 93.9817 194.187C91.3886 195.484 92.253 198.725 92.9013 199.373C93.5496 200.022 108.46 200.886 109.108 200.886C109.757 200.886 111.701 198.941 111.917 197.213C112.09 195.83 110.837 195.34 110.189 195.268C111.629 189.073 115.159 174.998 117.752 168.256Z" fill="#E9F3F8"/>
<path fill-rule="evenodd" clip-rule="evenodd" d="M110.205 195.198C110.329 194.669 110.467 194.083 110.618 193.45C109.625 193.973 107.099 194.78 103.275 194.621L110.205 195.198ZM94.437 192.501C94.2786 193.092 94.1265 193.656 93.9817 194.189C93.9125 194.224 93.8457 194.26 93.7814 194.297L98.9532 194.621C96.5113 194.235 95.1124 193.268 94.437 192.501Z" fill="#C2E9F8"/>
<path fill-rule="evenodd" clip-rule="evenodd" d="M125.101 192.892C125.101 192.892 125.101 192.892 125.101 192.892C125.545 192.407 126.051 191.821 126.599 191.158C121.593 189.091 117.608 190.012 116.241 190.731C118.834 190.213 123.228 191.956 125.101 192.892C125.101 192.892 125.101 192.892 125.101 192.892Z" fill="#AFD4E2"/>
<path d="M129.565 121.66C130.083 119.88 129.781 119.105 129.565 118.941C120.593 113.799 105.84 117.622 99.5852 120.177C99.2257 120.836 98.7656 122.352 99.8008 123.143C101.095 124.132 106.487 120.424 114.467 120.671C120.852 120.869 127.193 121.413 129.565 121.66Z" fill="white"/>
<path d="M168.965 120.068C171.487 118.411 176.824 118.002 182.011 124.225C188.493 132.005 183.307 146.051 167.748 148.644C152.19 151.237 158.456 180.194 168.181 178.465M173.936 178.197C176.673 177.261 182.45 176.425 183.66 180.574C185.172 185.76 178.257 195.268 166.588 200.239C154.919 205.209 148.22 213.42 148.437 221.848" stroke="#9D303C" stroke-width="2"/>
<path d="M175.698 116.599C175.481 115.054 174.052 113.977 172.507 114.194L159.755 115.985C157.671 116.277 156.176 118.142 156.342 120.239V120.239C156.547 122.808 159.103 124.508 161.551 123.702L173.783 119.676C175.081 119.248 175.888 117.953 175.698 116.599V116.599Z" fill="#F65D6D"/>
<circle r="3.2414" transform="matrix(-1 0 0 1 163.778 117.043)" fill="#9D303C"/>
<path d="M133.309 98.242C137.113 93.5744 134.894 81.0265 133.309 75.3361L129.852 73.3912C128.987 69.2855 128.128 61.396 118.101 68.3109C105.568 76.9547 98.7344 112.936 98.0862 116.61C97.4379 120.283 101.544 121.58 104.353 119.419C107.162 117.258 121.208 118.771 124.882 119.419C128.555 120.067 132.013 117.906 130.932 115.962C129.852 114.017 128.555 104.076 133.309 98.242Z" fill="#3D58FF"/>
<path d="M133.309 98.242C137.113 93.5744 134.894 81.0265 133.309 75.3361L129.852 73.3912C128.987 69.2855 128.128 61.396 118.101 68.3109C105.568 76.9547 98.7344 112.936 98.0862 116.61C97.4379 120.283 101.544 121.58 104.353 119.419C107.162 117.258 121.208 118.771 124.882 119.419C128.555 120.067 132.013 117.906 130.932 115.962C129.852 114.017 128.555 104.076 133.309 98.242Z" fill="#3D58FF"/>
<path d="M127.944 83.6535C127.944 78.5589 122.155 75.9344 119.26 75.259C118.006 73.9082 116.828 71.7276 122.155 73.8117C128.812 76.4169 133.733 79.0221 129.391 96.6794C125.918 110.805 113.664 111.056 107.971 109.416C102.664 107.39 95.4659 104.032 109.129 106.811C126.207 110.284 127.944 90.0217 127.944 83.6535Z" fill="#48C5A1"/>
<path d="M133.528 76.4175C133.528 75.5531 133.312 73.8244 131.583 73.1758C132.447 74.6888 131.799 74.4723 130.07 73.8241C128.341 73.1758 118.401 64.7482 124.236 72.0956C129.463 78.6781 133.528 77.9301 133.528 76.4175Z" fill="white"/>
<path d="M131.798 73.6084C129.896 70.4967 133.31 67.1256 135.255 65.829L129.637 58.9141L123.37 69.2865C126.972 72.0237 133.699 76.7201 131.798 73.6084Z" fill="#FF8982"/>
<path d="M147.786 56.9692C149.861 52.1287 149.227 47.4611 147.787 45.3002L144.329 48.3255C143.393 52.3592 142.125 60.1674 144.545 59.1301C146.965 58.0929 147.282 54.9523 147.138 53.5117C147.83 53.5117 147.858 55.8167 147.786 56.9692Z" fill="#FFCA63"/>
<path d="M145.195 50.4868C144.849 46.6835 140.873 44.1481 138.928 43.3557L131.581 53.9443C129.636 51.3512 127.908 51.9994 127.475 55.0247C127.043 58.0501 129.852 59.5627 129.852 59.7788C130.501 64.1007 129.852 64.3168 136.335 67.7743C139.33 69.3713 141.172 68.0435 142.485 66.2616C142.8 66.0455 143.466 66.2616 143.682 65.6133C143.846 65.1213 143.466 65.0535 143.25 65.0977C143.754 64.9814 144.702 64.6393 144.461 64.2007C144.22 63.762 144.36 63.2309 144.461 63.0202C144.563 62.861 144.663 62.7158 144.763 62.588C145.339 62.588 146.535 62.3287 146.708 61.2915C146.924 59.9949 145.195 59.5627 144.763 58.0501C144.331 56.5374 145.627 55.2408 145.195 50.4868Z" fill="#FFAD95"/>
<mask id="mask4_1780_1979" style="mask-type:alpha" maskUnits="userSpaceOnUse" x="127" y="43" width="20" height="26">
<path d="M145.197 50.4868C144.851 46.6835 140.875 44.1481 138.93 43.3557L131.583 53.9443C129.638 51.3512 127.909 51.9994 127.477 55.0247C127.045 58.0501 129.854 59.5627 129.854 59.7788C130.502 64.1007 129.854 64.3168 136.337 67.7743C139.331 69.3713 141.173 68.0435 142.486 66.2616C142.801 66.0455 143.468 66.2616 143.684 65.6133C143.848 65.1213 143.468 65.0535 143.252 65.0977C143.756 64.9814 144.704 64.6393 144.463 64.2007C144.221 63.762 144.362 63.2309 144.463 63.0202C144.565 62.861 144.665 62.7158 144.764 62.588C145.341 62.588 146.536 62.3287 146.709 61.2915C146.925 59.9949 145.197 59.5627 144.764 58.0501C144.332 56.5374 145.629 55.2408 145.197 50.4868Z" fill="#FFAD95"/>
</mask>
<g mask="url(#mask4_1780_1979)">
<g filter="url(#filter8_f_1780_1979)">
<circle r="4.75405" transform="matrix(-1 0 0 1 134.608 59.3477)" fill="#FF7A72"/>
</g>
</g>
<path d="M131.582 55.0241C141.522 56.3206 148.437 54.1598 148.869 46.3804C148.437 37.5206 127.76 32.6486 122.29 39.6814C117.608 46.1643 104.311 59.6053 88.5791 61.5069C68.9146 63.8839 63.5123 88.7347 70.6434 95.4336L73.0204 95.0014C71.5078 94.209 67.2407 86.3576 71.7238 82.2519C69.3468 87.2219 74.7492 93.7048 74.7492 93.7048L88.1469 91.5439C88.1469 91.5439 92.1087 90.1752 90.0919 88.5184C93.3333 84.1966 96.3586 77.9299 101.977 72.3115C107.595 66.693 114.294 72.9597 120.345 73.8241C126.396 74.6885 130.933 60.6424 129.853 59.778C128.773 58.9137 126.612 55.024 128.124 53.0792C129.334 51.5233 130.501 52.8631 131.149 53.9436L131.582 55.0241Z" fill="#FFCA63"/>
<mask id="mask5_1780_1979" style="mask-type:alpha" maskUnits="userSpaceOnUse" x="67" y="36" width="82" height="60">
<path d="M131.583 55.0242C141.524 56.3207 148.439 54.16 148.871 46.3805C148.439 37.5207 127.762 32.6487 122.291 39.6816C117.609 46.1644 104.312 59.6054 88.5808 61.507C68.9163 63.8841 63.5139 88.7348 70.645 95.4337L73.0221 95.0015C71.5094 94.2091 67.2423 86.3578 71.7255 82.252C69.3485 87.222 74.7508 93.7049 74.7508 93.7049L88.1486 91.544C88.1486 91.544 95.2271 90.81 93.2102 89.1533C96.4516 84.8314 97.7231 80.2985 103.341 74.68C108.96 69.0616 114.296 72.9599 120.347 73.8242C126.397 74.6886 130.935 60.6425 129.855 59.7782C128.774 58.9138 126.613 55.0241 128.126 53.0793C129.336 51.5234 130.503 52.8632 131.151 53.9437L131.583 55.0242Z" fill="#FFBA34"/>
</mask>
<g mask="url(#mask5_1780_1979)">
<path d="M87.9321 73.6085C93.8098 67.9037 121.374 66.4265 128.505 68.0112C122.694 76.8371 97.786 92.1061 97.4402 92.6247C97.008 93.273 82.962 98.2432 81.0171 93.7052C79.0723 89.1673 80.5849 80.7396 87.9321 73.6085Z" fill="#F4B53B"/>
</g>
<path d="M84.1637 106.707C82.435 100.137 91.3668 88.2668 96.0489 83.1526L109.128 81.3372C110.479 79.9864 113.47 77.5742 114.628 78.732C116.075 80.1793 109.707 100.731 108.839 107.389C108.144 112.715 106.239 114.794 105.365 114.915C97.8553 116.579 85.8925 113.276 84.1637 106.707Z" fill="#0CAF80"/>
<path fill-rule="evenodd" clip-rule="evenodd" d="M112.021 93.1851C111.905 93.6483 111.788 94.1121 111.672 94.5751C111.116 96.7888 110.566 98.9805 110.095 100.967C103.705 97.7497 92.3384 90.9967 92.6377 86.9377C92.9458 86.5435 93.2508 86.1611 93.5505 85.7922C96.3819 84.9201 105.213 89.2988 112.021 93.1851Z" fill="#109C74"/>
<path d="M93.4569 85.962C89.1351 79.9114 107.503 69.9711 108.367 68.8906L116.579 72.9964L111.445 94.9424C110.866 99.5739 96.9144 90.8025 93.4569 85.962Z" fill="#48C5A1"/>
<path d="M109.054 75.8814C108.965 75.9875 108.873 76.0963 108.78 76.2076C108.396 76.131 107.906 76.0244 107.29 75.8814C102.501 74.7706 91.1598 95.0438 90.9078 96.1547C90.6558 97.2656 93.4281 103.653 94.6882 97.5433C95.6757 92.7555 104.321 81.537 108.78 76.2076C110.781 76.6071 109.9 76.1921 109.054 75.8814Z" fill="white"/>
<path d="M109.79 69.4665C114.448 71.1243 121.089 72.9622 124.344 72.7569C113.489 82.6233 102.347 80.3609 101.792 78.3874C101.237 76.4138 104.399 73.8422 104.66 72.683C103.489 70.0311 102.77 66.968 109.79 69.4665Z" fill="#3D58FF"/>
<path fill-rule="evenodd" clip-rule="evenodd" d="M122.119 72.6641C118.599 72.2601 113.549 70.805 109.79 69.4671C108.846 69.1314 108.043 68.896 107.361 68.7467C106.705 68.8405 106.636 69.4059 107.992 70.8973C110.787 73.9729 119.188 73.5228 123.039 72.9133L122.119 72.6641Z" fill="#213094"/>
<path d="M124.233 55.4563C125.385 58.9858 129.073 66.2177 134.605 66.9092C130.629 56.7096 133.237 52.5751 135.038 51.7827" stroke="#213094" stroke-width="3"/>
<path d="M148.101 41.8333C143.782 38.1731 136.436 36.5949 133.303 36.2633C125.703 35.4676 124.703 36.6612 120.504 38.0537C116.304 39.4462 116.104 44.8172 116.704 47.8011C117.184 50.1883 121.837 54.7636 124.103 56.7529L125.703 55.9572C124.903 51.9786 129.903 51.7797 132.303 51.9786C134.702 52.1776 136.102 53.3711 137.302 53.1722C138.262 53.013 139.569 51.5145 140.102 50.7851C143.622 46.6474 147.168 47.0717 148.501 47.8011C150.168 47.337 152.421 45.4936 148.101 41.8333Z" fill="#3D58FF"/>
<path fill-rule="evenodd" clip-rule="evenodd" d="M146.155 47.2041C143.702 45.1485 137.96 40.9578 134.618 40.6395C136.143 40.5732 139.67 40.5997 141.58 41.2363C137.462 39.78 129.997 37.2664 125.926 36.2705C124.688 36.5056 123.693 36.8808 122.529 37.3201C121.917 37.5508 121.259 37.7993 120.493 38.0545C119.651 38.3353 118.97 38.778 118.425 39.3302C117.863 40.3602 117.273 41.502 116.769 42.5069C116.643 43.025 116.561 43.5561 116.514 44.084L124.87 49.5914L121.886 44.8171L131.374 51.933C131.683 51.941 131.971 51.9578 132.23 51.9794C133.446 52.0807 134.403 52.44 135.208 52.7419C135.984 53.0329 136.617 53.2706 137.203 53.1729C138.158 53.0138 139.458 51.5152 139.988 50.7858C142.181 48.1941 144.384 47.3923 146.051 47.3341L146.155 47.2041Z" fill="#6B80FD"/>
<path d="M142.385 39.9565C141.94 38.8626 138.998 38.0813 136.146 37.1437C136.591 38.2375 140.603 40.4253 142.385 39.9565Z" fill="#26337E"/>
<path d="M130.798 37.3779C133.293 38.503 137.929 42.1442 139.711 44.4101C140.38 47.9261 130.798 39.7219 129.683 38.7843C128.569 37.8467 127.678 35.9715 130.798 37.3779Z" fill="#26337E"/>
<path d="M133.695 46.2852C133.516 45.5351 127.381 43.4723 124.335 42.5347C123.667 42.3003 122.374 42.1597 122.553 43.4723C122.775 45.1131 133.917 47.2228 133.695 46.2852Z" fill="#26337E"/>
<path d="M132.135 48.6292C130.862 48.3612 125.524 48.0041 122.998 47.4572C120.993 47.2229 121.216 48.3948 121.216 49.3324C121.216 50.27 128.346 50.5044 131.243 50.0356C134.14 49.5668 133.249 48.8637 132.135 48.6292Z" fill="#26337E"/>
<path d="M98.484 89.7848L97.2283 88.582M99.2374 87.8602C98.6514 87.0584 97.3789 85.5027 96.9771 85.6952C96.4748 85.9357 94.7168 88.1009 94.9679 88.8226C95.2191 89.5443 96.9771 91.7093 97.4794 91.2282C97.9817 90.7471 99.4885 88.8224 99.2374 87.8602Z" stroke="#EC9216" stroke-width="2" stroke-linecap="round"/>
<path d="M186.685 196.565C186.685 195.182 184.669 194.836 183.66 194.836C182.58 198.149 180.981 204.949 183.228 205.64C186.037 206.505 186.685 198.293 186.685 196.565Z" fill="#EC9216"/>
<path d="M183.658 194.836C178.126 195.182 177.463 199.446 177.824 201.535C177.824 206.937 186.899 207.585 184.09 204.344C181.843 201.924 182.866 196.997 183.658 194.836Z" fill="#E44758"/>
<rect width="5.61842" height="74.0662" rx="2.80921" transform="matrix(-0.983918 0.178622 0.178622 0.983918 169.857 156.074)" fill="#F65D6D"/>
<circle r="1.29656" transform="matrix(-1 0 0 1 179.555 225.738)" fill="#9D303C"/>
<path d="M166.139 114.016C160.902 110.711 157.552 112.7 157.121 112.677C155.016 112.927 153.173 115.326 156.781 119.151C161.29 123.932 163.164 121.217 162.346 120.308C161.528 119.4 160.029 119.105 160.812 116.549C161.8 114.221 165.367 116.356 165.923 118.116C166.48 119.876 164.459 121.285 164.379 122.795C164.3 124.306 166.288 123.545 167.911 121.466C169.535 119.387 171.375 117.32 166.139 114.016Z" fill="#FFAD95"/>
<path d="M127.531 79.3671C125.843 76.2715 122.876 75.4279 121.354 75.5644C114.88 75.2246 113.078 81.9471 118.831 96.0123C127.309 116.74 132.912 115.215 136.755 117.235C143.139 118.869 152.406 120.004 157.188 119.606L160.446 111.122L135.758 102.758C133.442 96.0123 130.297 84.44 127.531 79.3671Z" fill="#3146CC"/>
<path d="M65.8884 112.938H20.7249M76.6931 133.251H53.1389M47.9527 96.9475H33.0422M210.999 108.838H185.5M200.514 121.285H190.574M178.905 99.9728H163.779" stroke="#EFF2FA" stroke-width="2" stroke-linecap="round"/>
<path d="M19.6437 175.389C24.1385 173.833 27.9993 181.799 29.3679 185.977H0.195347C-0.0927773 185.617 -0.28006 184.638 1.27581 183.6C2.83168 182.563 4.80534 183.312 5.59768 183.817C6.46205 180.791 9.91954 180.575 12.7288 180.143C15.538 179.711 14.0253 177.334 19.6437 175.389Z" fill="#EFF2FA"/>
<path d="M50.1129 171.067C42.3335 171.067 43.5581 174.741 43.1979 176.469L41.6852 185.977H61.998C61.998 180.575 57.8922 180.575 56.3796 179.71C54.8669 178.846 55.0453 171.067 50.1129 171.067Z" fill="#EFF2FA"/>
<path fill-rule="evenodd" clip-rule="evenodd" d="M51.7386 171.402C52.0333 173.015 52.1431 175.512 50.7587 175.82C50.4845 175.881 50.2189 175.929 49.9709 175.974C48.4603 176.247 47.6058 176.402 49.4621 178.629L49.5072 178.683C50.0127 179.29 50.2444 179.568 50.2557 179.854C50.2652 180.097 50.1169 180.345 49.8433 180.804C49.3778 181.585 48.5495 182.974 47.5175 185.976H47.5178C47.5748 185.899 52.6835 179.066 56.8093 179.926C56.8347 179.931 56.8598 179.936 56.8844 179.941C56.696 179.868 56.5257 179.792 56.3796 179.709C55.8723 179.419 55.5552 178.351 55.1717 177.06C54.5549 174.984 53.7664 172.329 51.7386 171.402ZM13.4725 179.948C14.1497 179.68 14.4806 179.224 14.8845 178.668C15.3943 177.967 16.0202 177.105 17.6051 176.258C18.1563 176.834 18.6762 178.05 18.5608 180.358C18.388 183.815 19.9294 184.68 20.7217 184.68C18.5925 184.955 14.3149 184.352 13.4725 179.948ZM12.509 185.976H12.94C12.1457 185.759 10.0012 185.111 7.75612 184.248C6.62644 183.813 7.45149 182.45 8.05752 181.45C8.14083 181.312 8.22 181.181 8.28938 181.061C7.03201 181.552 6.01403 182.358 5.59768 183.815C5.46051 183.728 5.28794 183.633 5.08825 183.542C6.96397 185.09 10.3857 185.918 12.509 185.976Z" fill="#E8EBF2"/>
<path d="M44.2071 169.161C50.1424 172.611 47.2797 181.809 45.1064 185.977H33.2595C33.6342 184.756 36.4732 181.062 37.9121 176.06C39.7108 169.808 22.6243 160.322 30.9426 156.225C39.261 152.129 31.8419 146.739 25.5469 138.547C19.252 130.354 33.4156 114.616 39.261 122.377C45.1063 130.138 38.3618 130.354 37.9121 138.547C37.4625 146.739 49.6028 147.17 48.029 156.225C46.4553 165.28 36.788 164.849 44.2071 169.161Z" fill="#EFF2FA"/>
<path d="M41.6855 171.067C46.3531 174.87 42.91 182.592 40.605 185.977H37.5797C39.0924 183.816 42.0312 178.587 41.6855 174.956C41.2533 170.418 36.2832 168.474 35.851 164.152C35.4188 159.83 44.7108 157.021 34.1222 145.136C25.6514 135.627 30.8808 129.793 34.5544 128.064C32.8257 129.073 30.1461 132.861 33.2579 139.949C37.1475 148.809 43.4142 152.699 41.0372 158.317C38.6602 163.936 35.851 166.313 41.6855 171.067Z" fill="#E8EBF2"/>
<path d="M32.4776 168.642C40.7756 173.137 36.6554 182.04 33.5581 185.93H27.2914C27.2914 182.472 25.7787 182.689 22.7534 179.015C19.7281 175.341 26.2109 174.693 17.9994 168.642C9.78782 162.592 12.8131 157.838 12.597 154.38C12.3809 150.923 6.33033 153.084 2.65675 144.224C-1.01684 135.364 10.8683 134.932 15.6223 142.279C20.3764 149.626 20.8086 148.762 27.2914 153.732C33.7742 158.702 22.1052 163.024 32.4776 168.642Z" fill="#3D58FF"/>
<path d="M32.4776 168.642C40.7756 173.137 36.6554 182.04 33.5581 185.93H27.2914C27.2914 182.472 25.7787 182.689 22.7534 179.015C19.7281 175.341 26.2109 174.693 17.9994 168.642C9.78782 162.592 12.8131 157.838 12.597 154.38C12.3809 150.923 6.33033 153.084 2.65675 144.224C-1.01684 135.364 10.8683 134.932 15.6223 142.279C20.3764 149.626 20.8086 148.762 27.2914 153.732C33.7742 158.702 22.1052 163.024 32.4776 168.642Z" fill="#EFF2FA"/>
<path fill-rule="evenodd" clip-rule="evenodd" d="M30.9158 185.929C32.2523 181.179 33.5372 173.785 30.4459 173.012C26.124 171.931 21.8022 166.529 23.3149 161.559C24.8275 156.589 19.4252 151.835 15.1033 150.754C11.0447 149.739 4.31812 140.911 4.05062 137.692C7.09462 136.189 12.7005 137.768 15.619 142.278C19.2864 147.946 20.3818 148.727 23.667 151.07C24.6405 151.764 25.8062 152.595 27.288 153.731C30.2027 155.966 29.4482 158.069 28.6773 160.218C27.7335 162.849 26.7652 165.549 32.4743 168.641C40.7723 173.136 36.6521 182.039 33.5548 185.929H30.9158Z" fill="#E8EBF2"/>
<path d="M63.0026 23.887C76.8572 13.087 85.5689 23.3576 88.1929 29.8429C92.2863 27.3021 94.6217 31.1663 95.2776 33.416H7.11161C8.686 29.9219 12.7532 30.3719 14.59 31.0337C15.2197 22.7748 22.7243 23.0926 26.3979 24.2838C41.5121 1.09547 57.0986 14.3575 63.0026 23.887Z" fill="#EFF2FA"/>
<path d="M137.37 92.2208C138.043 87.8108 135.128 78.3916 132.885 73.9429L134.847 73.6528C136.903 77.3277 139.276 83.807 140.173 89.6096C141.07 95.4122 138.211 101.505 135.688 102.666L134.847 100.055C135.875 99.4743 136.697 96.6308 137.37 92.2208Z" fill="#48C5A1"/>
<path d="M133.446 69.8811C132.997 69.4169 132.138 69.4942 131.764 69.5909C131.091 70.7517 131.297 72.202 131.484 72.7821C134.287 71.9117 134.006 70.4613 133.446 69.8811Z" fill="#48C5A1"/>
<defs>
<filter id="filter0_d_1780_1979" x="355.517" y="116.809" width="35.7886" height="19.2764" filterUnits="userSpaceOnUse" color-interpolation-filters="sRGB">
<feFlood flood-opacity="0" result="BackgroundImageFix"/>
<feColorMatrix in="SourceAlpha" type="matrix" values="0 0 0 0 0 0 0 0 0 0 0 0 0 0 0 0 0 0 127 0" result="hardAlpha"/>
<feOffset dy="2"/>
<feGaussianBlur stdDeviation="2"/>
<feColorMatrix type="matrix" values="0 0 0 0 0.709804 0 0 0 0 0.74902 0 0 0 0 0.988235 0 0 0 1 0"/>
<feBlend mode="normal" in2="BackgroundImageFix" result="effect1_dropShadow_1780_1979"/>
<feBlend mode="normal" in="SourceGraphic" in2="effect1_dropShadow_1780_1979" result="shape"/>
</filter>
<filter id="filter1_d_1780_1979" x="310.135" y="90.5466" width="28.2625" height="31.7361" filterUnits="userSpaceOnUse" color-interpolation-filters="sRGB">
<feFlood flood-opacity="0" result="BackgroundImageFix"/>
<feColorMatrix in="SourceAlpha" type="matrix" values="0 0 0 0 0 0 0 0 0 0 0 0 0 0 0 0 0 0 127 0" result="hardAlpha"/>
<feOffset dy="3"/>
<feGaussianBlur stdDeviation="2"/>
<feColorMatrix type="matrix" values="0 0 0 0 0.733333 0 0 0 0 0.770447 0 0 0 0 1 0 0 0 1 0"/>
<feBlend mode="normal" in2="BackgroundImageFix" result="effect1_dropShadow_1780_1979"/>
<feBlend mode="normal" in="SourceGraphic" in2="effect1_dropShadow_1780_1979" result="shape"/>
</filter>
<filter id="filter2_d_1780_1979" x="314.244" y="15.8499" width="54.3143" height="38.6257" filterUnits="userSpaceOnUse" color-interpolation-filters="sRGB">
<feFlood flood-opacity="0" result="BackgroundImageFix"/>
<feColorMatrix in="SourceAlpha" type="matrix" values="0 0 0 0 0 0 0 0 0 0 0 0 0 0 0 0 0 0 127 0" result="hardAlpha"/>
<feOffset dy="4"/>
<feGaussianBlur stdDeviation="2"/>
<feColorMatrix type="matrix" values="0 0 0 0 0.909804 0 0 0 0 0.921569 0 0 0 0 0.94902 0 0 0 1 0"/>
<feBlend mode="normal" in2="BackgroundImageFix" result="effect1_dropShadow_1780_1979"/>
<feBlend mode="normal" in="SourceGraphic" in2="effect1_dropShadow_1780_1979" result="shape"/>
</filter>
<filter id="filter3_d_1780_1979" x="245.933" y="62.7991" width="20.1575" height="20.3789" filterUnits="userSpaceOnUse" color-interpolation-filters="sRGB">
<feFlood flood-opacity="0" result="BackgroundImageFix"/>
<feColorMatrix in="SourceAlpha" type="matrix" values="0 0 0 0 0 0 0 0 0 0 0 0 0 0 0 0 0 0 127 0" result="hardAlpha"/>
<feOffset dy="2"/>
<feGaussianBlur stdDeviation="2"/>
<feColorMatrix type="matrix" values="0 0 0 0 0.717647 0 0 0 0 0.756863 0 0 0 0 0.988235 0 0 0 1 0"/>
<feBlend mode="normal" in2="BackgroundImageFix" result="effect1_dropShadow_1780_1979"/>
<feBlend mode="normal" in="SourceGraphic" in2="effect1_dropShadow_1780_1979" result="shape"/>
</filter>
<filter id="filter4_d_1780_1979" x="240.47" y="91.4933" width="21.5786" height="33.6528" filterUnits="userSpaceOnUse" color-interpolation-filters="sRGB">
<feFlood flood-opacity="0" result="BackgroundImageFix"/>
<feColorMatrix in="SourceAlpha" type="matrix" values="0 0 0 0 0 0 0 0 0 0 0 0 0 0 0 0 0 0 127 0" result="hardAlpha"/>
<feOffset dy="2"/>
<feGaussianBlur stdDeviation="2.5"/>
<feColorMatrix type="matrix" values="0 0 0 0 0.65098 0 0 0 0 0.698039 0 0 0 0 0.988235 0 0 0 0.2 0"/>
<feBlend mode="normal" in2="BackgroundImageFix" result="effect1_dropShadow_1780_1979"/>
<feBlend mode="normal" in="SourceGraphic" in2="effect1_dropShadow_1780_1979" result="shape"/>
</filter>
<filter id="filter5_d_1780_1979" x="254.364" y="90.905" width="23.3154" height="35.6499" filterUnits="userSpaceOnUse" color-interpolation-filters="sRGB">
<feFlood flood-opacity="0" result="BackgroundImageFix"/>
<feColorMatrix in="SourceAlpha" type="matrix" values="0 0 0 0 0 0 0 0 0 0 0 0 0 0 0 0 0 0 127 0" result="hardAlpha"/>
<feOffset dy="2"/>
<feGaussianBlur stdDeviation="2.5"/>
<feColorMatrix type="matrix" values="0 0 0 0 0.65098 0 0 0 0 0.698039 0 0 0 0 0.988235 0 0 0 0.2 0"/>
<feBlend mode="normal" in2="BackgroundImageFix" result="effect1_dropShadow_1780_1979"/>
<feBlend mode="normal" in="SourceGraphic" in2="effect1_dropShadow_1780_1979" result="shape"/>
</filter>
<filter id="filter6_d_1780_1979" x="269.993" y="89.7332" width="25.6311" height="38.8154" filterUnits="userSpaceOnUse" color-interpolation-filters="sRGB">
<feFlood flood-opacity="0" result="BackgroundImageFix"/>
<feColorMatrix in="SourceAlpha" type="matrix" values="0 0 0 0 0 0 0 0 0 0 0 0 0 0 0 0 0 0 127 0" result="hardAlpha"/>
<feOffset dy="2"/>
<feGaussianBlur stdDeviation="2.5"/>
<feColorMatrix type="matrix" values="0 0 0 0 0.65098 0 0 0 0 0.698039 0 0 0 0 0.988235 0 0 0 0.2 0"/>
<feBlend mode="normal" in2="BackgroundImageFix" result="effect1_dropShadow_1780_1979"/>
<feBlend mode="normal" in="SourceGraphic" in2="effect1_dropShadow_1780_1979" result="shape"/>
</filter>
<filter id="filter7_d_1780_1979" x="242.903" y="137.397" width="71.6096" height="41.0742" filterUnits="userSpaceOnUse" color-interpolation-filters="sRGB">
<feFlood flood-opacity="0" result="BackgroundImageFix"/>
<feColorMatrix in="SourceAlpha" type="matrix" values="0 0 0 0 0 0 0 0 0 0 0 0 0 0 0 0 0 0 127 0" result="hardAlpha"/>
<feOffset dx="3" dy="3"/>
<feGaussianBlur stdDeviation="5"/>
<feColorMatrix type="matrix" values="0 0 0 0 0.239216 0 0 0 0 0.345098 0 0 0 0 1 0 0 0 0.5 0"/>
<feBlend mode="normal" in2="BackgroundImageFix" result="effect1_dropShadow_1780_1979"/>
<feBlend mode="normal" in="SourceGraphic" in2="effect1_dropShadow_1780_1979" result="shape"/>
</filter>
<filter id="filter8_f_1780_1979" x="109.854" y="34.5936" width="49.5081" height="49.5081" filterUnits="userSpaceOnUse" color-interpolation-filters="sRGB">
<feFlood flood-opacity="0" result="BackgroundImageFix"/>
<feBlend mode="normal" in="SourceGraphic" in2="BackgroundImageFix" result="shape"/>
<feGaussianBlur stdDeviation="10" result="effect1_foregroundBlur_1780_1979"/>
</filter>
<linearGradient id="paint0_linear_1780_1979" x1="315.954" y1="98.5127" x2="337.756" y2="104.262" gradientUnits="userSpaceOnUse">
<stop stop-color="#3D58FF"/>
<stop offset="1" stop-color="#CDD3FB"/>
</linearGradient>
</defs>
</svg>
