<?xml version="1.0"?>
<svg xmlns="http://www.w3.org/2000/svg" xmlns:xlink="http://www.w3.org/1999/xlink" version="1.1" id="Capa_1" x="0px" y="0px" viewBox="0 0 512.001 512.001" style="enable-background:new 0 0 512.001 512.001;" xml:space="preserve" width="512px" height="512px"><g><g>
	<g>
		<path d="M256.001,192.8c-34.849,0-63.2,28.352-63.2,63.2c0,34.849,28.352,63.2,63.2,63.2c34.849,0,63.199-28.352,63.199-63.2    S290.849,192.8,256.001,192.8z" data-original="#000000" class="active-path" data-old_color="#000000" fill="#252525"/>
	</g>
</g><g>
	<g>
		<path d="M382.154,494.876c-4.303-30.081-19.328-57.711-42.304-77.804c-23.208-20.294-52.986-31.471-83.849-31.471    c-30.863,0-60.642,11.177-83.85,31.471c-22.978,20.093-38.001,47.724-42.305,77.804c-0.616,4.306,0.667,8.666,3.516,11.951    c2.85,3.287,6.984,5.174,11.333,5.174h222.61c4.349,0,8.483-1.887,11.333-5.174C381.487,503.542,382.77,499.181,382.154,494.876z" data-original="#000000" class="active-path" data-old_color="#000000" fill="#252525"/>
	</g>
</g><g>
	<g>
		<path d="M256,96.4c-88.004,0-159.6,71.597-159.6,159.6c0,53.444,26.409,100.834,66.858,129.815    c9.164-6.684,18.985-12.32,29.276-16.854C153.096,346.715,126.4,304.419,126.4,256c0-71.461,58.139-129.6,129.601-129.6    s129.6,58.139,129.6,129.6c0,48.42-26.695,90.715-66.135,112.961c10.291,4.533,20.112,10.17,29.276,16.854    c40.45-28.98,66.858-76.37,66.858-129.815C415.6,167.996,344.004,96.4,256,96.4z" data-original="#000000" class="active-path" data-old_color="#000000" fill="#252525"/>
	</g>
</g><g>
	<g>
		<path d="M437.017,74.981C388.663,26.629,324.377,0,256.001,0c-68.38,0-132.667,26.629-181.02,74.98    C26.629,123.334,0,187.622,0,256c0,48.987,13.885,96.603,40.152,137.697c17.569,27.486,40.087,51.23,66.289,70.107    c3.209-9.74,7.364-19.129,12.39-28.038C63.168,393.559,30,327.967,30,256C30,131.383,131.384,30,256.001,30s226,101.383,226,226    c0,71.966-33.168,137.558-88.831,179.766c5.024,8.91,9.181,18.298,12.39,28.037c26.201-18.876,48.719-42.619,66.288-70.105    c26.268-41.095,40.153-88.71,40.153-137.697C512.001,187.622,485.371,123.334,437.017,74.981z" data-original="#000000" class="active-path" data-old_color="#000000" fill="#252525"/>
	</g>
</g></g> </svg>
